<mxfile host="app.diagrams.net" modified="2022-07-01T17:46:58.023Z" agent="5.0 (Macintosh; Intel Mac OS X 10_15_7) AppleWebKit/537.36 (KHTML, like Gecko) Chrome/91.0.4472.114 Safari/537.36" etag="PHG4YIuOYyvBW2DRc2L5" version="20.0.3" type="github">
  <diagram id="4ujseZWwCsOnc6gE1i4V" name="Page-1">
    <mxGraphModel dx="1636" dy="423" grid="1" gridSize="10" guides="1" tooltips="1" connect="1" arrows="1" fold="1" page="1" pageScale="1" pageWidth="850" pageHeight="1100" math="0" shadow="0">
      <root>
        <mxCell id="0" />
        <mxCell id="1" parent="0" />
        <mxCell id="SvqcW0XtVO8Xa0jgC3W7-29" value="" style="rounded=1;whiteSpace=wrap;html=1;strokeWidth=1;fillColor=#f5f5f5;strokeColor=#666666;fontColor=#333333;" parent="1" vertex="1">
          <mxGeometry x="-190" y="60" width="750" height="550" as="geometry" />
        </mxCell>
        <mxCell id="SvqcW0XtVO8Xa0jgC3W7-25" value="" style="rounded=1;whiteSpace=wrap;html=1;dashed=1;" parent="1" vertex="1">
          <mxGeometry x="-160" y="275" width="700" height="315" as="geometry" />
        </mxCell>
        <mxCell id="SvqcW0XtVO8Xa0jgC3W7-1" value="Compile" style="rounded=1;whiteSpace=wrap;html=1;dashed=1;fillColor=#dae8fc;strokeColor=#6c8ebf;" parent="1" vertex="1">
          <mxGeometry x="90" y="120" width="430" height="140" as="geometry" />
        </mxCell>
        <mxCell id="SvqcW0XtVO8Xa0jgC3W7-2" value=".java code" style="rounded=1;whiteSpace=wrap;html=1;fillColor=#fff2cc;strokeColor=#d6b656;" parent="1" vertex="1">
          <mxGeometry x="120" y="174" width="120" height="60" as="geometry" />
        </mxCell>
        <mxCell id="SvqcW0XtVO8Xa0jgC3W7-3" value=".class bytecode" style="rounded=1;whiteSpace=wrap;html=1;fillColor=#fff2cc;strokeColor=#d6b656;" parent="1" vertex="1">
          <mxGeometry x="368" y="175" width="120" height="60" as="geometry" />
        </mxCell>
        <mxCell id="SvqcW0XtVO8Xa0jgC3W7-4" value="" style="endArrow=classic;html=1;rounded=0;exitX=1;exitY=0.5;exitDx=0;exitDy=0;" parent="1" source="SvqcW0XtVO8Xa0jgC3W7-2" target="SvqcW0XtVO8Xa0jgC3W7-3" edge="1">
          <mxGeometry width="50" height="50" relative="1" as="geometry">
            <mxPoint x="380" y="250" as="sourcePoint" />
            <mxPoint x="430" y="200" as="targetPoint" />
          </mxGeometry>
        </mxCell>
        <mxCell id="SvqcW0XtVO8Xa0jgC3W7-5" value="Javac Compiler" style="text;html=1;strokeColor=none;fillColor=none;align=center;verticalAlign=middle;whiteSpace=wrap;rounded=0;" parent="1" vertex="1">
          <mxGeometry x="240" y="120" width="130" height="30" as="geometry" />
        </mxCell>
        <mxCell id="SvqcW0XtVO8Xa0jgC3W7-6" value="" style="rounded=1;whiteSpace=wrap;html=1;dashed=1;fillColor=#dae8fc;strokeColor=#6c8ebf;" parent="1" vertex="1">
          <mxGeometry x="120" y="290" width="405" height="290" as="geometry" />
        </mxCell>
        <mxCell id="SvqcW0XtVO8Xa0jgC3W7-7" value="Efficient Machine/Native Code" style="rounded=1;whiteSpace=wrap;html=1;fillColor=#fff2cc;strokeColor=#d6b656;" parent="1" vertex="1">
          <mxGeometry x="360" y="470" width="130" height="60" as="geometry" />
        </mxCell>
        <mxCell id="SvqcW0XtVO8Xa0jgC3W7-9" value="JVM - Java Virtual Machine" style="text;html=1;strokeColor=none;fillColor=none;align=center;verticalAlign=middle;whiteSpace=wrap;rounded=0;" parent="1" vertex="1">
          <mxGeometry x="256.5" y="300" width="132" height="30" as="geometry" />
        </mxCell>
        <mxCell id="SvqcW0XtVO8Xa0jgC3W7-11" value="" style="endArrow=classic;html=1;rounded=0;exitX=0.5;exitY=1;exitDx=0;exitDy=0;entryX=0.5;entryY=0;entryDx=0;entryDy=0;edgeStyle=orthogonalEdgeStyle;" parent="1" source="SvqcW0XtVO8Xa0jgC3W7-3" target="SvqcW0XtVO8Xa0jgC3W7-15" edge="1">
          <mxGeometry width="50" height="50" relative="1" as="geometry">
            <mxPoint x="380" y="260" as="sourcePoint" />
            <mxPoint x="485" y="360" as="targetPoint" />
          </mxGeometry>
        </mxCell>
        <mxCell id="SvqcW0XtVO8Xa0jgC3W7-12" value="" style="endArrow=classic;html=1;rounded=0;" parent="1" source="SvqcW0XtVO8Xa0jgC3W7-15" target="SvqcW0XtVO8Xa0jgC3W7-7" edge="1">
          <mxGeometry width="50" height="50" relative="1" as="geometry">
            <mxPoint x="370" y="360" as="sourcePoint" />
            <mxPoint x="430" y="210" as="targetPoint" />
          </mxGeometry>
        </mxCell>
        <mxCell id="SvqcW0XtVO8Xa0jgC3W7-15" value="JIT Compiler" style="ellipse;whiteSpace=wrap;html=1;fillColor=#e1d5e7;strokeColor=#9673a6;" parent="1" vertex="1">
          <mxGeometry x="368" y="320" width="120" height="80" as="geometry" />
        </mxCell>
        <mxCell id="SvqcW0XtVO8Xa0jgC3W7-17" value="Java Interpreter&amp;nbsp;" style="ellipse;whiteSpace=wrap;html=1;fillColor=#e1d5e7;strokeColor=#9673a6;" parent="1" vertex="1">
          <mxGeometry x="155" y="460" width="120" height="80" as="geometry" />
        </mxCell>
        <mxCell id="SvqcW0XtVO8Xa0jgC3W7-18" value="" style="endArrow=classic;html=1;rounded=0;exitX=0;exitY=0.5;exitDx=0;exitDy=0;entryX=1;entryY=0.5;entryDx=0;entryDy=0;" parent="1" source="SvqcW0XtVO8Xa0jgC3W7-7" target="SvqcW0XtVO8Xa0jgC3W7-17" edge="1">
          <mxGeometry width="50" height="50" relative="1" as="geometry">
            <mxPoint x="220" y="360" as="sourcePoint" />
            <mxPoint x="270" y="310" as="targetPoint" />
          </mxGeometry>
        </mxCell>
        <mxCell id="SvqcW0XtVO8Xa0jgC3W7-19" value="Execution" style="rounded=1;whiteSpace=wrap;html=1;fillColor=#d5e8d4;strokeColor=#82b366;" parent="1" vertex="1">
          <mxGeometry x="150" y="340" width="130" height="60" as="geometry" />
        </mxCell>
        <mxCell id="SvqcW0XtVO8Xa0jgC3W7-21" value="" style="rounded=1;whiteSpace=wrap;html=1;fillColor=#dae8fc;strokeColor=#6c8ebf;dashed=1;" parent="1" vertex="1">
          <mxGeometry x="-150" y="123.5" width="230" height="136.5" as="geometry" />
        </mxCell>
        <mxCell id="SvqcW0XtVO8Xa0jgC3W7-22" value="Library Classes" style="rounded=1;whiteSpace=wrap;html=1;fillColor=#dae8fc;strokeColor=#6c8ebf;dashed=1;" parent="1" vertex="1">
          <mxGeometry x="-130" y="430" width="230" height="135" as="geometry" />
        </mxCell>
        <mxCell id="SvqcW0XtVO8Xa0jgC3W7-23" value="" style="endArrow=classic;html=1;rounded=0;entryX=0.5;entryY=1;entryDx=0;entryDy=0;" parent="1" target="SvqcW0XtVO8Xa0jgC3W7-19" edge="1">
          <mxGeometry width="50" height="50" relative="1" as="geometry">
            <mxPoint x="215" y="460" as="sourcePoint" />
            <mxPoint x="130" y="360" as="targetPoint" />
          </mxGeometry>
        </mxCell>
        <mxCell id="SvqcW0XtVO8Xa0jgC3W7-28" value="JRE - Java RunTime Environment" style="text;html=1;strokeColor=none;fillColor=none;align=center;verticalAlign=middle;whiteSpace=wrap;rounded=0;dashed=1;strokeWidth=1;" parent="1" vertex="1">
          <mxGeometry x="-140" y="290" width="120" height="30" as="geometry" />
        </mxCell>
        <mxCell id="SvqcW0XtVO8Xa0jgC3W7-30" value="JDK - Java Developement Kit" style="text;html=1;strokeColor=none;fillColor=none;align=center;verticalAlign=middle;whiteSpace=wrap;rounded=0;" parent="1" vertex="1">
          <mxGeometry x="85" y="60" width="190" height="30" as="geometry" />
        </mxCell>
        <mxCell id="rGvzbWw5i0zWQbygckv1-1" value="Class Loader" style="rounded=1;whiteSpace=wrap;html=1;fillColor=#fff2cc;strokeColor=#d6b656;dashed=1;" parent="1" vertex="1">
          <mxGeometry x="-130" y="330" width="225" height="87.5" as="geometry" />
        </mxCell>
        <mxCell id="rGvzbWw5i0zWQbygckv1-2" value="Other Development Tools" style="rounded=1;whiteSpace=wrap;html=1;fillColor=#fff2cc;strokeColor=#d6b656;" parent="1" vertex="1">
          <mxGeometry x="-132.5" y="208" width="192.5" height="40" as="geometry" />
        </mxCell>
        <mxCell id="rGvzbWw5i0zWQbygckv1-3" value="JavaDoc" style="rounded=1;whiteSpace=wrap;html=1;fillColor=#fff2cc;strokeColor=#d6b656;" parent="1" vertex="1">
          <mxGeometry x="-32.5" y="136" width="92.5" height="60" as="geometry" />
        </mxCell>
        <mxCell id="rGvzbWw5i0zWQbygckv1-4" value="Debugger" style="rounded=1;whiteSpace=wrap;html=1;fillColor=#fff2cc;strokeColor=#d6b656;" parent="1" vertex="1">
          <mxGeometry x="-131" y="136" width="92.5" height="60" as="geometry" />
        </mxCell>
      </root>
    </mxGraphModel>
  </diagram>
</mxfile>
